HIERARCHY
ROOT 02_10
{
	OFFSET 0.000000 0.000000 0.000000
	CHANNELS 6 Xposition Yposition Zposition Xrotation Yrotation Zrotation
	JOINT hip
	{
		OFFSET 55.199490 85.152702 3.021367
		CHANNELS 3 Xrotation Yrotation Zrotation
		JOINT abdomen
		{
			OFFSET 0.000000 20.688103 -0.731517
			CHANNELS 3 Xrotation Yrotation Zrotation
			JOINT chest
			{
				OFFSET -0.092266 11.703918 -0.488221
				CHANNELS 3 Xrotation Yrotation Zrotation
				JOINT neck
				{
					OFFSET -0.224262 22.188004 -2.197183
					CHANNELS 3 Xrotation Yrotation Zrotation
					JOINT head
					{
						OFFSET -0.314137 7.068665 1.218508
						CHANNELS 3 Xrotation Yrotation Zrotation
						JOINT leftEye
						{
							OFFSET 4.069050 8.088989 8.043271
							CHANNELS 3 Xrotation Yrotation Zrotation
							End Site
							{
								OFFSET -0.120888 12.031601 -0.001421
							}
						}
						JOINT rightEye
						{
							OFFSET -3.733437 8.010590 8.047970
							CHANNELS 3 Xrotation Yrotation Zrotation
							End Site
							{
								OFFSET -0.120888 12.031601 -0.001421
							}
						}
					}
				}
				JOINT rCollar
				{
					OFFSET -2.878578 19.234863 -4.877462
					CHANNELS 3 Xrotation Yrotation Zrotation
					JOINT rShldr
					{
						OFFSET -8.757317 -2.038666 1.468554
						CHANNELS 3 Xrotation Yrotation Zrotation
						JOINT rForeArm
						{
							OFFSET -28.155289 -1.994415 0.504846
							CHANNELS 3 Xrotation Yrotation Zrotation
							JOINT rHand
							{
								OFFSET -22.590282 0.547089 7.084864
								CHANNELS 3 Xrotation Yrotation Zrotation
								JOINT rThumb1
								{
									OFFSET -1.212181 -0.499710 3.414551
									CHANNELS 3 Xrotation Yrotation Zrotation
									JOINT rThumb2
									{
										OFFSET -3.362855 -0.557907 3.415856
										CHANNELS 3 Xrotation Yrotation Zrotation
										End Site
										{
											OFFSET -0.510060 -3.348877 -3.437004
										}
									}
								}
								JOINT rIndex1
								{
									OFFSET -7.765133 0.860977 5.612883
									CHANNELS 3 Xrotation Yrotation Zrotation
									JOINT rIndex2
									{
										OFFSET -2.530624 -0.909454 1.567014
										CHANNELS 3 Xrotation Yrotation Zrotation
										End Site
										{
											OFFSET -0.482412 -2.439743 -1.871267
										}
									}
								}
								JOINT rMid1
								{
									OFFSET -8.256548 1.099625 3.418589
									CHANNELS 3 Xrotation Yrotation Zrotation
									JOINT rMid2
									{
										OFFSET -3.094923 -0.621109 1.066632
										CHANNELS 3 Xrotation Yrotation Zrotation
										End Site
										{
											OFFSET 0.218893 -3.106033 -1.186045
										}
									}
								}
								JOINT rRing1
								{
									OFFSET -8.832348 0.458145 1.522035
									CHANNELS 3 Xrotation Yrotation Zrotation
									JOINT rRing2
									{
										OFFSET -2.600983 -0.845947 -0.018181
										CHANNELS 3 Xrotation Yrotation Zrotation
										End Site
										{
											OFFSET 0.827684 -2.594421 -0.254866
										}
									}
								}
								JOINT rPinky1
								{
									OFFSET -8.271393 -0.130951 -0.453410
									CHANNELS 3 Xrotation Yrotation Zrotation
									JOINT rPinky2
									{
										OFFSET -1.821169 -0.665802 -0.699812
										CHANNELS 3 Xrotation Yrotation Zrotation
										End Site
										{
											OFFSET 0.357841 -1.838379 0.861397
										}
									}
								}
							}
						}
					}
				}
				JOINT lCollar
				{
					OFFSET 2.485630 19.288757 -4.880692
					CHANNELS 3 Xrotation Yrotation Zrotation
					JOINT lShldr
					{
						OFFSET 8.798275 -1.862259 1.457984
						CHANNELS 3 Xrotation Yrotation Zrotation
						JOINT lForeArm
						{
							OFFSET 28.190269 -1.428268 0.470919
							CHANNELS 3 Xrotation Yrotation Zrotation
							JOINT lHand
							{
								OFFSET 22.583237 1.000992 7.057662
								CHANNELS 3 Xrotation Yrotation Zrotation
								JOINT lThumb1
								{
									OFFSET 1.226089 -0.475220 3.413082
									CHANNELS 3 Xrotation Yrotation Zrotation
									JOINT lThumb2
									{
										OFFSET 3.377510 -0.490189 3.411787
										CHANNELS 3 Xrotation Yrotation Zrotation
										End Site
										{
											OFFSET -0.573105 3.337982 3.437657
										}
									}
								}
								JOINT lIndex1
								{
									OFFSET 7.753014 1.016907 5.603538
									CHANNELS 3 Xrotation Yrotation Zrotation
									JOINT lIndex2
									{
										OFFSET 2.550255 -0.858398 1.563954
										CHANNELS 3 Xrotation Yrotation Zrotation
										End Site
										{
											OFFSET -0.529076 2.429565 1.871859
										}
									}
								}
								JOINT lMid1
								{
									OFFSET 8.236893 1.265350 3.408654
									CHANNELS 3 Xrotation Yrotation Zrotation
									JOINT lMid2
									{
										OFFSET 3.108055 -0.558777 1.062904
										CHANNELS 3 Xrotation Yrotation Zrotation
										End Site
										{
											OFFSET 0.157867 3.109818 1.185818
										}
									}
								}
								JOINT lRing1
								{
									OFFSET 8.823196 0.635529 1.511402
									CHANNELS 3 Xrotation Yrotation Zrotation
									JOINT lRing2
									{
										OFFSET 2.617424 -0.793503 -0.021323
										CHANNELS 3 Xrotation Yrotation Zrotation
										End Site
										{
											OFFSET 0.775696 2.610519 0.253899
										}
									}
								}
								JOINT lPinky1
								{
									OFFSET 8.271812 0.035263 -0.463375
									CHANNELS 3 Xrotation Yrotation Zrotation
									JOINT lPinky2
									{
										OFFSET 1.833321 -0.629074 -0.702007
										CHANNELS 3 Xrotation Yrotation Zrotation
										End Site
										{
											OFFSET 0.319794 1.845169 -0.861799
										}
									}
								}
							}
						}
					}
				}
			}
		}
		JOINT rButtock
		{
			OFFSET -8.778240 4.350838 1.219202
			CHANNELS 3 Xrotation Yrotation Zrotation
			JOINT rThigh
			{
				OFFSET 0.000004 -1.706871 -2.194565
				CHANNELS 3 Xrotation Yrotation Zrotation
				JOINT rShin
				{
					OFFSET 0.527390 -36.660675 3.457856
					CHANNELS 3 Xrotation Yrotation Zrotation
					JOINT rFoot
					{
						OFFSET 1.391357 -45.252586 -3.460052
						CHANNELS 3 Xrotation Yrotation Zrotation
						End Site
						{
							OFFSET -44.881008 -4.278574 -5.393831
						}
					}
				}
			}
		}
		JOINT lButtock
		{
			OFFSET 8.778244 4.350838 1.219201
			CHANNELS 3 Xrotation Yrotation Zrotation
			JOINT lThigh
			{
				OFFSET 0.000004 -1.706871 -2.194566
				CHANNELS 3 Xrotation Yrotation Zrotation
				JOINT lShin
				{
					OFFSET -0.088116 -36.752815 2.337451
					CHANNELS 3 Xrotation Yrotation Zrotation
					JOINT lFoot
					{
						OFFSET -0.842403 -45.337940 -2.338090
						CHANNELS 3 Xrotation Yrotation Zrotation
						End Site
						{
							OFFSET -44.930099 3.741217 5.384667
						}
					}
				}
			}
		}
	}
}
MOTION
Frames: 9
Frame Time: 0.033333
0.000000 0.000000 0.000000 -0.000000 0.000000 -0.000000 -9.521641 7.136558 4.107288 2.221263 11.972773 9.934759 4.614010 3.415526 -0.274063 9.246795 14.533480 2.813159 -7.211199 26.899192 1.746307 0.000001 -0.000001 -0.000002 0.000001 -0.000001 -0.000002 -0.000003 0.000006 0.000005 157.690954 72.820922 -116.320198 100.055783 59.019494 -146.427153 -32.588595 -4.649173 -1.338989 -0.000006 0.000000 -0.000001 0.000003 0.000003 -0.000011 -0.000005 -0.000000 0.000004 -0.000003 0.000003 0.000004 -0.000002 -0.000001 -0.000001 -0.000000 -0.000002 0.000003 -0.000001 -0.000001 0.000004 0.000004 -0.000002 -0.000000 -0.000003 0.000000 0.000003 0.000003 -0.000003 -0.000001 -0.000002 0.000004 -0.000004 -43.920753 -6.902271 -56.591631 10.639153 -50.428735 37.181357 -77.548349 7.225422 5.860271 0.000006 -0.000009 -0.000001 -0.000000 0.000004 -0.000000 -0.000002 -0.000005 0.000000 0.000002 -0.000000 0.000003 0.000004 -0.000002 0.000005 0.000003 0.000008 -0.000000 -0.000005 -0.000003 -0.000001 -0.000001 -0.000002 -0.000002 0.000001 0.000004 0.000000 0.000004 -0.000004 0.000004 0.000003 0.000000 -0.000001 6.974508 -4.358573 -4.242499 19.295479 0.813854 -0.077256 -18.135619 -22.157668 -7.908216 0.000003 0.000000 -0.000001 2.672679 -5.560899 -2.718888 19.400847 -0.369648 0.085594 -9.267556 10.744214 1.924065 
0.000000 0.000000 0.000000 -0.000000 0.000000 -0.000000 -9.677212 7.914938 3.903164 2.111691 12.604203 10.514532 3.302903 3.513079 -2.736425 8.166926 14.639795 4.618414 -9.046004 26.234410 4.815312 -0.000001 -0.000001 -0.000001 -0.000000 0.000000 0.000001 -0.000006 0.000001 0.000004 166.115897 72.405579 -125.226464 98.277666 59.977476 -144.133220 -30.098759 -4.329671 -1.146287 -0.000010 0.000001 -0.000003 0.000007 -0.000001 -0.000009 -0.000008 -0.000007 0.000002 -0.000003 0.000003 0.000006 -0.000002 -0.000002 -0.000002 0.000004 0.000003 -0.000004 -0.000004 -0.000003 0.000006 0.000006 0.000001 -0.000002 -0.000009 -0.000006 0.000004 -0.000003 -0.000003 0.000001 -0.000003 0.000004 -0.000007 -48.123341 -10.064645 -53.372191 10.299946 -50.045431 36.666102 -78.891922 7.259909 6.030553 0.000005 -0.000007 -0.000004 -0.000003 0.000005 -0.000003 0.000003 -0.000002 -0.000001 -0.000001 0.000003 0.000006 0.000005 0.000000 -0.000001 0.000003 0.000002 -0.000000 -0.000003 -0.000000 -0.000005 0.000001 -0.000004 -0.000004 -0.000004 0.000003 0.000002 -0.000001 -0.000005 0.000003 0.000003 -0.000000 -0.000000 7.183936 -4.517379 -4.091598 19.111482 0.814005 -0.074186 -18.272284 -22.766095 -8.164384 0.000003 -0.000000 -0.000000 2.635480 -5.539129 -2.635805 19.329627 -0.362636 0.085657 -8.764404 10.208858 1.738286 
0.000000 0.000000 0.000000 -0.000000 0.000000 -0.000000 -9.640886 8.663260 3.851665 1.568176 13.101021 10.930442 3.165480 3.668089 -2.814536 8.329919 14.718501 5.229554 -11.469917 25.941668 5.470206 0.000005 0.000004 0.000001 0.000005 0.000002 0.000001 -0.000004 0.000000 0.000006 166.550133 71.696844 -126.491757 96.667941 60.759327 -142.091936 -27.710619 -4.015345 -0.972882 -0.000008 -0.000003 -0.000002 -0.000000 0.000004 -0.000009 -0.000007 0.000000 0.000003 -0.000003 0.000001 0.000003 -0.000001 -0.000002 0.000002 0.000001 0.000002 -0.000002 0.000002 -0.000001 0.000004 0.000000 0.000000 -0.000007 -0.000007 -0.000006 0.000004 -0.000000 0.000002 0.000003 -0.000003 0.000004 -0.000004 -53.077769 -12.064836 -52.357034 9.713641 -49.356354 35.765131 -79.594373 7.276370 6.119844 0.000005 -0.000008 -0.000001 0.000005 0.000003 -0.000002 0.000003 -0.000004 -0.000000 0.000005 0.000004 0.000003 0.000002 -0.000001 0.000003 0.000003 0.000001 0.000002 -0.000002 -0.000001 0.000001 -0.000002 -0.000001 -0.000000 -0.000000 0.000005 0.000001 0.000002 -0.000005 0.000002 0.000002 0.000001 -0.000000 7.579261 -4.730029 -3.899986 18.566327 0.802142 -0.065885 -18.425366 -23.244288 -8.358738 0.000002 0.000001 -0.000000 2.503486 -5.922930 -2.554849 19.346861 -0.364605 0.086918 -8.857771 9.774883 1.683179 
0.000000 0.000000 0.000000 -0.000000 0.000000 -0.000000 -9.522848 9.447887 4.104401 0.941442 13.618333 11.181015 3.166329 3.836211 -2.649475 8.837963 14.784930 5.548617 -14.208792 25.708038 5.780562 0.000003 -0.000001 0.000000 0.000003 0.000001 0.000001 -0.000005 0.000007 0.000007 165.056917 70.860931 -126.393006 94.861943 61.554027 -139.828739 -24.641159 -3.600927 -0.770437 -0.000012 0.000000 -0.000005 0.000003 -0.000004 -0.000016 -0.000008 -0.000003 -0.000001 -0.000005 0.000001 0.000006 -0.000002 -0.000004 -0.000004 -0.000002 -0.000001 0.000001 -0.000000 -0.000002 0.000004 0.000005 0.000001 -0.000000 -0.000003 -0.000003 0.000004 -0.000005 0.000003 -0.000002 -0.000004 0.000007 -0.000005 -57.590079 -14.128754 -52.061204 8.882082 -48.314648 34.460022 -80.238481 7.290467 6.201730 0.000008 -0.000004 -0.000006 0.000002 0.000006 -0.000002 -0.000002 -0.000002 -0.000004 0.000003 0.000000 0.000005 -0.000001 -0.000001 -0.000002 -0.000000 0.000006 -0.000001 0.000001 -0.000000 -0.000001 0.000001 0.000003 -0.000000 -0.000003 0.000004 -0.000001 0.000003 0.000001 -0.000003 0.000003 0.000001 0.000000 7.770467 -4.933528 -3.888448 18.320171 0.803369 -0.061676 -18.777116 -23.639070 -8.634390 0.000003 0.000001 0.000000 2.361034 -6.399638 -2.654540 19.339051 -0.364966 0.087371 -8.881379 9.425843 1.629032 
0.000000 0.000000 0.000000 -0.000000 0.000000 -0.000000 -9.441690 10.272422 4.479250 0.355911 14.178868 11.387581 2.986626 4.008358 -2.851227 8.994408 14.771029 5.881589 -16.575836 25.336464 6.465890 -0.000004 0.000000 0.000000 -0.000004 -0.000002 -0.000001 -0.000003 0.000000 0.000003 164.271145 70.074947 -127.414023 92.511108 62.473343 -136.921141 -20.924674 -3.085176 -0.556596 -0.000004 0.000000 -0.000005 -0.000002 -0.000004 -0.000011 -0.000004 0.000001 0.000001 -0.000002 0.000002 0.000007 -0.000001 -0.000001 -0.000001 0.000002 0.000001 -0.000005 0.000002 0.000002 0.000004 0.000003 -0.000004 0.000007 -0.000003 0.000000 -0.000000 0.000000 0.000006 0.000003 -0.000003 0.000001 -0.000004 -61.498053 -16.377571 -52.141493 7.955748 -47.053194 32.962322 -80.729161 7.300554 6.264174 0.000013 -0.000004 -0.000006 -0.000000 -0.000003 -0.000003 0.000006 -0.000003 -0.000003 0.000001 0.000004 0.000003 0.000007 -0.000003 -0.000003 0.000001 0.000004 0.000001 0.000003 -0.000001 -0.000001 0.000001 -0.000002 -0.000000 0.000005 0.000004 -0.000006 0.000003 -0.000002 0.000003 0.000002 -0.000001 -0.000000 7.818842 -5.124307 -3.967277 18.322927 0.814257 -0.060972 -19.212318 -24.027026 -8.964791 0.000002 -0.000001 -0.000000 2.226978 -6.873048 -2.831992 19.296428 -0.363087 0.087058 -8.806621 9.056366 1.551472 
0.000000 0.000000 0.000000 -0.000000 0.000000 -0.000000 -9.512152 11.075187 4.458800 -0.291647 14.665446 11.796623 3.014596 4.178485 -2.502766 8.306987 14.543617 5.934246 -17.517309 24.870501 6.940408 0.000004 -0.000001 -0.000001 0.000004 -0.000001 -0.000000 -0.000009 0.000001 0.000005 163.938351 69.734544 -128.779119 89.290100 63.549535 -133.005093 -17.408955 -2.584989 -0.384977 -0.000008 0.000000 0.000004 0.000007 0.000000 -0.000008 -0.000009 -0.000008 0.000003 -0.000003 0.000002 0.000005 -0.000001 -0.000002 0.000002 -0.000002 -0.000004 0.000005 -0.000002 -0.000004 0.000006 0.000004 -0.000001 -0.000007 -0.000002 -0.000003 0.000003 0.000002 0.000003 -0.000000 -0.000006 0.000006 -0.000003 -65.781859 -17.647640 -53.285502 7.177441 -45.897560 31.660956 -80.293532 7.291545 6.208726 0.000009 -0.000010 -0.000008 0.000002 0.000003 -0.000006 0.000006 -0.000003 -0.000001 -0.000007 0.000003 0.000002 0.000001 -0.000001 -0.000003 0.000001 0.000003 0.000003 0.000000 -0.000001 -0.000001 -0.000000 0.000001 -0.000005 0.000008 0.000006 -0.000000 -0.000002 -0.000004 0.000003 -0.000000 -0.000001 -0.000000 8.240373 -5.354904 -3.731397 17.814281 0.802589 -0.053589 -19.313521 -24.519985 -9.147750 -0.000000 -0.000001 -0.000000 2.060705 -7.465142 -2.704357 19.312973 -0.368265 0.088066 -9.238922 8.474179 1.519132 
0.000000 0.000000 0.000000 -0.000000 0.000000 -0.000000 -9.802940 11.955476 4.880670 -0.609572 15.069465 11.740479 3.018799 4.309408 -2.294652 8.716881 14.158503 5.566070 -20.413456 23.863337 8.283587 -0.000001 -0.000001 -0.000001 0.000000 -0.000002 0.000000 -0.000003 -0.000001 0.000005 162.210900 69.248781 -129.769674 85.609584 64.564166 -128.595127 -13.834459 -2.066232 -0.242718 -0.000007 0.000004 0.000004 0.000007 -0.000003 -0.000007 -0.000012 0.000000 0.000004 -0.000002 -0.000001 0.000006 -0.000005 -0.000005 0.000004 0.000001 -0.000001 0.000002 -0.000003 -0.000001 0.000009 0.000001 0.000002 -0.000007 -0.000005 -0.000003 0.000009 -0.000002 0.000002 0.000005 -0.000002 -0.000004 -0.000006 -68.105244 -19.746582 -53.659021 6.408040 -44.659151 30.334595 -80.221637 7.290008 6.199596 0.000006 -0.000008 -0.000006 -0.000002 0.000005 -0.000003 0.000004 -0.000003 -0.000002 -0.000003 0.000001 0.000004 0.000003 -0.000002 -0.000005 -0.000001 0.000003 0.000002 -0.000000 -0.000001 -0.000006 0.000004 0.000001 -0.000000 0.000006 0.000004 -0.000001 -0.000001 -0.000004 0.000003 0.000005 -0.000000 -0.000000 8.660559 -5.617850 -3.979880 17.737301 0.809718 -0.052056 -19.633246 -25.064216 -9.488322 0.000005 -0.000000 -0.000000 2.243738 -7.713018 -3.058577 19.245689 -0.364156 0.087741 -8.956998 8.163553 1.422686 
0.000000 0.000000 0.000000 -0.000000 0.000000 -0.000000 -9.916951 12.968801 4.953181 -1.115286 15.465394 12.315704 2.899533 4.437926 -2.435433 7.953541 13.595840 5.398972 -21.638975 22.685172 9.458254 -0.000003 -0.000003 -0.000003 -0.000001 0.000000 -0.000002 -0.000003 0.000003 0.000003 160.941059 69.095341 -131.675747 80.917244 65.581502 -123.061185 -11.520977 -1.725935 -0.167476 -0.000010 0.000000 -0.000005 -0.000000 -0.000008 -0.000012 -0.000003 -0.000003 0.000000 -0.000003 0.000000 0.000003 -0.000002 -0.000003 0.000001 0.000002 -0.000001 -0.000003 0.000000 -0.000002 0.000006 0.000001 -0.000002 -0.000002 -0.000002 -0.000005 0.000003 -0.000003 0.000001 0.000001 -0.000003 0.000001 -0.000006 -70.213279 -22.146323 -54.249966 5.700321 -43.416063 29.064781 -79.880797 7.282659 6.156219 0.000009 -0.000006 -0.000002 -0.000000 -0.000000 -0.000006 0.000004 -0.000005 0.000001 -0.000000 0.000003 0.000003 0.000003 -0.000002 0.000001 -0.000000 0.000006 0.000001 0.000001 -0.000000 -0.000001 -0.000001 -0.000001 -0.000000 0.000004 0.000002 0.000001 0.000002 -0.000005 0.000003 0.000003 0.000000 -0.000000 9.008128 -5.777186 -3.554164 17.544598 0.817533 -0.047707 -20.233839 -25.593141 -9.943733 0.000003 0.000000 -0.000000 2.127913 -8.193991 -2.831689 19.432295 -0.366319 0.090167 -8.803409 7.824333 1.345182 
0.000000 0.000000 0.000000 -0.000000 0.000000 -0.000000 -9.920275 14.072238 5.012711 -1.693912 15.741395 12.648288 2.678661 4.535954 -2.615971 7.209678 13.065453 5.270176 -22.631552 21.487615 10.908409 0.000000 -0.000000 -0.000000 0.000000 -0.000002 -0.000000 -0.000005 0.000001 0.000003 160.357556 69.223598 -134.540342 75.304366 66.466845 -116.516211 -9.908523 -1.486991 -0.123252 -0.000006 -0.000001 -0.000003 0.000003 -0.000000 -0.000004 -0.000004 -0.000002 -0.000001 -0.000005 0.000005 0.000007 0.000002 -0.000005 0.000001 -0.000003 -0.000001 0.000000 0.000002 -0.000004 0.000007 0.000003 -0.000006 -0.000002 -0.000004 -0.000003 0.000005 -0.000001 -0.000001 -0.000003 -0.000001 0.000004 -0.000006 -72.092449 -24.542861 -54.969120 5.079732 -42.234321 27.910615 -79.135501 7.265708 6.061347 0.000004 -0.000008 -0.000006 0.000002 0.000002 -0.000005 0.000003 -0.000006 -0.000002 0.000003 0.000002 0.000003 -0.000002 -0.000002 0.000001 -0.000000 0.000006 0.000001 -0.000002 0.000002 -0.000003 0.000001 -0.000002 0.000001 -0.000001 0.000005 -0.000003 0.000002 -0.000006 -0.000000 0.000002 -0.000000 0.000000 9.214739 -6.003938 -3.232580 17.341678 0.823774 -0.043151 -20.760027 -26.172851 -10.385448 0.000002 -0.000000 0.000000 1.765021 -8.774621 -2.713059 19.703836 -0.370810 0.093366 -8.758483 7.324107 1.256339 
